<svg width="179" height="173" viewBox="0 0 179 173" fill="none" xmlns="http://www.w3.org/2000/svg">
<path d="M117.82 34.7706C123.034 34.7706 128.034 36.866 131.721 40.5959C135.408 44.3257 137.479 49.3845 137.479 54.6593V80.9459C137.479 83.5577 136.971 86.144 135.983 88.557C134.995 90.97 133.547 93.1625 131.721 95.0094C129.895 96.8562 127.728 98.3212 125.343 99.3207C122.958 100.32 120.401 100.835 117.82 100.835H68.7396C68.7396 103.547 70.9392 107.511 73.6201 107.511H103.109V119.194C103.109 124.468 101.038 129.527 97.3512 133.257C93.6643 136.987 88.6639 139.082 83.4498 139.082H54.0293C48.8153 139.082 43.8148 136.987 40.1279 133.257C36.441 129.527 34.3698 124.468 34.3698 119.194V93.1156C34.3698 90.507 34.8788 87.9241 35.8676 85.515C36.8564 83.1059 38.3056 80.9179 40.1321 79.0766C41.9585 77.2353 44.1263 75.7769 46.5111 74.785C48.8959 73.7931 51.4508 73.2872 54.0293 73.2964H90.1176C92.696 73.2964 95.2492 72.7815 97.6305 71.7811C100.012 70.7807 102.175 69.3146 103.995 67.4669C105.815 65.6191 107.256 63.4261 108.237 61.0134C109.217 58.6008 109.717 56.0161 109.708 53.4076V34.7706H117.82ZM88.3991 116.76C85.6495 116.76 83.4498 118.846 83.4498 122.949C83.4498 127.052 85.6495 127.886 88.3991 127.886C89.04 127.886 89.6746 127.758 90.2668 127.51C90.8589 127.262 91.3969 126.899 91.8501 126.44C92.3033 125.982 92.6628 125.437 92.9081 124.838C93.1533 124.239 93.2796 123.597 93.2796 122.949C93.2796 118.846 91.0799 116.76 88.3991 116.76ZM19.6595 104.312C14.4455 104.312 9.44501 102.216 5.75814 98.4864C2.07126 94.7566 0 89.6978 0 84.423V58.1364C0 55.5246 0.508508 52.9383 1.49649 50.5253C2.48447 48.1123 3.93258 45.9198 5.75814 44.0729C9.44501 40.343 14.4455 38.2476 19.6595 38.2476H68.7396C68.7396 35.5355 66.5399 31.5717 63.859 31.5717H34.3698V19.8888C34.3698 14.6139 36.441 9.55515 40.1279 5.82529C43.8148 2.09542 48.8153 0 54.0293 0H83.4498C86.0315 0 88.588 0.514438 90.9732 1.51394C93.3584 2.51345 95.5256 3.97844 97.3512 5.82529C99.1767 7.67213 100.625 9.86465 101.613 12.2777C102.601 14.6907 103.109 17.2769 103.109 19.8888V45.9667C103.109 48.5753 102.6 51.1582 101.612 53.5673C100.623 55.9764 99.1735 58.1644 97.3471 60.0057C95.5206 61.8469 93.3528 63.3054 90.968 64.2973C88.5832 65.2892 86.0283 65.7951 83.4498 65.7859H47.3616C44.7831 65.7859 42.2299 66.3008 39.8486 67.3012C37.4672 68.3015 35.3045 69.7676 33.4844 71.6154C31.6644 73.4632 30.2227 75.6562 29.2423 78.0688C28.2618 80.4815 27.7617 83.0661 27.7708 85.6747V104.312H19.6595ZM49.08 22.3227C51.8296 22.3227 54.0293 20.2365 54.0293 16.1335C54.0293 12.0306 51.8296 11.1961 49.08 11.1961C46.3992 11.1961 44.1995 12.0306 44.1995 16.1335C44.1995 20.2365 46.3992 22.3227 49.08 22.3227Z" fill="url(#paint0_linear_107_7)"/>
<path d="M172.317 173C176.014 173 179 169.979 179 166.24C179 153.606 172.672 143.529 164.507 135.268C158.66 129.353 151.455 123.965 144.188 118.916L143.666 118.557C141.181 116.846 138.696 115.156 136.253 113.508L135.918 113.297C134.665 112.451 133.433 111.628 132.201 110.783C127.837 107.825 123.681 104.93 119.818 102.015H144.606C142.559 103.578 140.408 105.121 138.195 106.684L139.656 107.677L140.283 108.099C143.436 110.233 146.736 112.451 150.035 114.775C155.256 110.952 160.247 106.895 164.528 102.585C172.672 94.3039 179 84.2265 179 71.5929C179 67.8535 176.014 64.8324 172.317 64.8324C168.621 64.8324 165.635 67.8535 165.635 71.5929H98.8094C98.8094 67.8535 95.8232 64.8324 92.1269 64.8324C88.4306 64.8324 85.4443 67.8535 85.4443 71.5929C85.4443 84.2265 91.7719 94.3039 99.9371 102.564C105.784 108.48 112.989 113.867 120.256 118.916C112.989 123.965 105.784 129.332 99.9371 135.268C91.7719 143.529 85.4443 153.606 85.4443 166.24C85.4443 169.979 88.4306 173 92.1269 173C95.8232 173 98.8094 169.979 98.8094 166.24H165.635C165.635 169.979 168.621 173 172.317 173ZM156.154 91.8743H108.29C106.181 89.6349 104.406 87.3744 102.965 85.1138H161.479C160.059 87.3744 158.284 89.6349 156.154 91.8743ZM108.29 145.958H156.154C158.263 148.219 160.038 150.458 161.479 152.719H102.965C104.385 150.458 106.16 148.219 108.29 145.958ZM119.859 135.817C123.702 132.902 127.879 130.008 132.243 127.05C136.608 130.008 140.763 132.902 144.627 135.817H119.839H119.859Z" fill="url(#paint1_linear_107_7)"/>
<defs>
<linearGradient id="paint0_linear_107_7" x1="68.7396" y1="0" x2="68.7396" y2="139.082" gradientUnits="userSpaceOnUse">
<stop stop-color="#FF0000" stop-opacity="0.99"/>
<stop offset="1" stop-color="#FF0000"/>
</linearGradient>
<linearGradient id="paint1_linear_107_7" x1="132.222" y1="173" x2="132.222" y2="64.8324" gradientUnits="userSpaceOnUse">
<stop stop-color="#00B2FF"/>
<stop offset="1" stop-color="#023AFF"/>
</linearGradient>
</defs>
</svg>
